<svg width="40" height="40" viewBox="0 0 40 40" fill="none" xmlns="http://www.w3.org/2000/svg">
<rect width="40" height="40" rx="20" fill="#111111"/>
<g clip-path="url(#clip0_510_1849)">
<path d="M28.4273 15.5383C28.299 15.6378 26.0346 16.9138 26.0346 19.7509C26.0346 23.0324 28.916 24.1934 29.0022 24.2221C28.9889 24.2929 28.5445 25.812 27.483 27.36C26.5366 28.7221 25.5482 30.0821 24.0445 30.0821C22.5408 30.0821 22.1538 29.2086 20.4179 29.2086C18.7263 29.2086 18.1248 30.1108 16.7494 30.1108C15.374 30.1108 14.4143 28.8504 13.3108 27.3025C12.0327 25.4848 11 22.6609 11 19.9808C11 15.6821 13.7951 13.4022 16.5459 13.4022C18.0076 13.4022 19.226 14.3619 20.1437 14.3619C21.0172 14.3619 22.3794 13.3447 24.0423 13.3447C24.6725 13.3447 26.9369 13.4022 28.4273 15.5383ZM23.2528 11.5248C23.9405 10.7088 24.427 9.57666 24.427 8.44447C24.427 8.28747 24.4138 8.12826 24.385 8C23.2661 8.04201 21.9349 8.74521 21.1322 9.67617C20.502 10.3926 19.9138 11.5248 19.9138 12.6725C19.9138 12.845 19.9425 13.0174 19.9558 13.0727C20.0265 13.086 20.1415 13.1015 20.2565 13.1015C21.2604 13.1015 22.5231 12.4292 23.2528 11.5248Z" fill="white"/>
</g>
<defs>
<clipPath id="clip0_510_1849">
<rect width="18" height="22.113" fill="white" transform="translate(11 8)"/>
</clipPath>
</defs>
</svg>
