<svg width="24" height="24" viewBox="0 0 24 24" fill="none" xmlns="http://www.w3.org/2000/svg">
<g clip-path="url(#clip0_1536_1651)">
<path d="M22.0625 10.9219H20.1955C19.9552 9.11865 19.128 7.44466 17.8417 6.15831C16.5553 4.87196 14.8814 4.04478 13.0781 3.80445V1.9375C13.0781 1.65156 12.9645 1.37734 12.7623 1.17515C12.5602 0.972963 12.2859 0.859375 12 0.859375C11.7141 0.859375 11.4398 0.972963 11.2377 1.17515C11.0355 1.37734 10.9219 1.65156 10.9219 1.9375V3.80445C9.11865 4.04478 7.44466 4.87196 6.15831 6.15831C4.87196 7.44466 4.04478 9.11865 3.80445 10.9219H1.9375C1.65156 10.9219 1.37734 11.0355 1.17515 11.2377C0.972963 11.4398 0.859375 11.7141 0.859375 12C0.859375 12.2859 0.972963 12.5602 1.17515 12.7623C1.37734 12.9645 1.65156 13.0781 1.9375 13.0781H3.80445C4.04478 14.8814 4.87196 16.5553 6.15831 17.8417C7.44466 19.128 9.11865 19.9552 10.9219 20.1955V22.0625C10.9219 22.3484 11.0355 22.6227 11.2377 22.8249C11.4398 23.027 11.7141 23.1406 12 23.1406C12.2859 23.1406 12.5602 23.027 12.7623 22.8249C12.9645 22.6227 13.0781 22.3484 13.0781 22.0625V20.1955C14.8814 19.9552 16.5553 19.128 17.8417 17.8417C19.128 16.5553 19.9552 14.8814 20.1955 13.0781H22.0625C22.3484 13.0781 22.6227 12.9645 22.8249 12.7623C23.027 12.5602 23.1406 12.2859 23.1406 12C23.1406 11.7141 23.027 11.4398 22.8249 11.2377C22.6227 11.0355 22.3484 10.9219 22.0625 10.9219ZM12 18.1094C10.7917 18.1094 9.61049 17.7511 8.60581 17.0798C7.60113 16.4085 6.81808 15.4543 6.35567 14.338C5.89327 13.2216 5.77228 11.9932 6.00802 10.8081C6.24375 9.62302 6.82561 8.53443 7.68002 7.68002C8.53443 6.82561 9.62302 6.24375 10.8081 6.00802C11.9932 5.77228 13.2216 5.89327 14.338 6.35567C15.4543 6.81808 16.4085 7.60113 17.0798 8.60581C17.7511 9.61049 18.1094 10.7917 18.1094 12C18.1077 13.6198 17.4635 15.1728 16.3181 16.3181C15.1728 17.4635 13.6198 18.1077 12 18.1094ZM12 8.04688C11.2181 8.04688 10.4538 8.27872 9.80376 8.7131C9.15367 9.14747 8.64699 9.76487 8.34779 10.4872C8.04859 11.2095 7.9703 12.0044 8.12283 12.7712C8.27537 13.538 8.65186 14.2424 9.20472 14.7953C9.75757 15.3481 10.462 15.7246 11.2288 15.8772C11.9956 16.0297 12.7905 15.9514 13.5128 15.6522C14.2351 15.353 14.8525 14.8463 15.2869 14.1962C15.7213 13.5462 15.9531 12.7819 15.9531 12C15.9519 10.9519 15.5351 9.94713 14.794 9.20603C14.0529 8.46493 13.0481 8.04806 12 8.04688ZM12 13.7969C11.6446 13.7969 11.2972 13.6915 11.0017 13.494C10.7062 13.2966 10.4759 13.016 10.3399 12.6876C10.2039 12.3593 10.1683 11.998 10.2377 11.6494C10.307 11.3009 10.4781 10.9807 10.7294 10.7294C10.9807 10.4781 11.3009 10.307 11.6494 10.2377C11.998 10.1683 12.3593 10.2039 12.6876 10.3399C13.016 10.4759 13.2966 10.7062 13.494 11.0017C13.6915 11.2972 13.7969 11.6446 13.7969 12C13.7969 12.4766 13.6076 12.9336 13.2706 13.2706C12.9336 13.6076 12.4766 13.7969 12 13.7969Z" fill="#999999"/>
</g>
<defs>
<clipPath id="clip0_1536_1651">
<rect width="24" height="24" fill="white"/>
</clipPath>
</defs>
</svg>
