<svg width="24" height="24" viewBox="0 0 24 24" fill="none" xmlns="http://www.w3.org/2000/svg">
<path d="M20.1377 21.9991H14.7722C14.7216 21.9991 14.6729 21.9799 14.6359 21.9455L2.68408 10.8193C2.46828 10.6187 2.29613 10.3756 2.17842 10.1052C2.06071 9.83485 1.99996 9.54303 2 9.24803C2.00358 8.68058 2.22867 8.13709 2.62707 7.7339L7.97621 2.38207C8.0986 2.25472 8.2466 2.1549 8.41041 2.08922C8.57421 2.02355 8.75007 1.99354 8.92633 2.00116C9.09512 1.99989 9.26248 2.03228 9.41867 2.09644C9.57486 2.1606 9.71676 2.25524 9.83612 2.37487C9.95548 2.4945 10.0499 2.63673 10.1139 2.79328C10.1779 2.94982 10.2102 3.11756 10.209 3.28674C10.208 3.45546 10.2412 3.62262 10.3065 3.77812C10.3718 3.93361 10.4679 4.07421 10.589 4.19141L11.3396 4.95324C12.3615 5.97325 13.7454 6.54521 15.1876 6.54355H16.4047C16.4941 6.54355 16.5726 6.60283 16.5971 6.68877L17.9334 11.3811C18.07 11.8446 18.3251 12.2642 18.6734 12.5983C19.0218 12.9323 19.4512 13.1693 19.9191 13.2857C20.5144 13.4346 21.0427 13.7791 21.4198 14.2641C21.797 14.7491 22.0012 15.3467 21.9999 15.9616V20.1707C22.0026 20.4148 21.956 20.6569 21.8628 20.8825C21.7697 21.108 21.632 21.3124 21.458 21.4832C21.2841 21.654 21.0774 21.7878 20.8505 21.8764C20.6236 21.9651 20.3811 22.0068 20.1377 21.9991Z" stroke="#FFCD29" stroke-width="2" stroke-miterlimit="10"/>
<path d="M21.9524 18.3613H16.5869C16.5363 18.3613 16.4876 18.3421 16.4506 18.3077L3.8147 6.54346" stroke="#FFCD29" stroke-width="2" stroke-miterlimit="10"/>
<path d="M14.6936 8.27661C14.1413 8.27661 13.6936 8.72433 13.6936 9.27661C13.6936 9.8289 14.1413 10.2766 14.6936 10.2766V8.27661ZM14.6936 10.2766H17.4204V8.27661H14.6936V10.2766Z" fill="#FFCD29"/>
<path d="M15.6057 11.9048C15.0534 11.9048 14.6057 12.3525 14.6057 12.9048C14.6057 13.4571 15.0534 13.9048 15.6057 13.9048V11.9048ZM15.6057 13.9048H19.2351V11.9048H15.6057V13.9048Z" fill="#FFCD29"/>
</svg>
