<svg width="40" height="40" viewBox="0 0 40 40" fill="none" xmlns="http://www.w3.org/2000/svg">
<g clip-path="url(#clip0_510_1850)">
<path d="M40 20C40 23.9556 38.827 27.8224 36.6294 31.1114C34.4318 34.4004 31.3082 36.9638 27.6537 38.4776C23.9992 39.9913 19.9778 40.3874 16.0982 39.6157C12.2186 38.844 8.65491 36.9392 5.85788 34.1421C3.06082 31.3451 1.15601 27.7815 0.384305 23.9018C-0.387399 20.0222 0.0086598 16.0008 1.52241 12.3463C3.03616 8.69182 5.59962 5.56823 8.88861 3.37061C12.1776 1.17298 16.0444 0 20 0C25.3044 0 30.3914 2.10714 34.1421 5.85787C37.8928 9.60861 40 14.6957 40 20ZM23.345 10.6V20.655L16.345 10.6H10.6V29.425H16.65V19.34L23.65 29.4H29.415V10.6H23.345Z" fill="#00DE5A"/>
</g>
<defs>
<clipPath id="clip0_510_1850">
<rect width="40" height="40" fill="white"/>
</clipPath>
</defs>
</svg>
