<svg width="24" height="24" viewBox="0 0 24 24" fill="none" xmlns="http://www.w3.org/2000/svg">
<path d="M2 21.9998L11.7561 10.2925L22 21.9998" stroke="#999999" stroke-width="2" stroke-linecap="round"/>
<path d="M11.7561 10.2927V6.87805M11.7561 6.87805V2.2C11.7561 2.08954 11.8456 2 11.9561 2H18.3854C18.4958 2 18.5854 2.08954 18.5854 2.2V6.67805C18.5854 6.78851 18.4958 6.87805 18.3854 6.87805H11.7561Z" stroke="#999999" stroke-width="2"/>
<path d="M6.87805 15.1709L9.66346 17.9563C9.74156 18.0344 9.8682 18.0344 9.9463 17.9563L11.6147 16.2879C11.6928 16.2098 11.8194 16.2098 11.8975 16.2879L13.5659 17.9563C13.644 18.0344 13.7706 18.0344 13.8487 17.9563L16.6342 15.1709" stroke="#999999" stroke-width="2"/>
</svg>
