<svg width="25" height="24" viewBox="0 0 25 24" fill="none" xmlns="http://www.w3.org/2000/svg">
<path d="M4.75 4.5C4.75 4.8283 4.81466 5.15339 4.9403 5.45671C5.06594 5.76002 5.25009 6.03562 5.48223 6.26777C5.71438 6.49991 5.98998 6.68406 6.29329 6.8097C6.59661 6.93534 6.9217 7 7.25 7C7.5783 7 7.90339 6.93534 8.20671 6.8097C8.51002 6.68406 8.78562 6.49991 9.01777 6.26777C9.24991 6.03562 9.43406 5.76002 9.5597 5.45671C9.68534 5.15339 9.75 4.8283 9.75 4.5C9.75 4.1717 9.68534 3.84661 9.5597 3.54329C9.43406 3.23998 9.24991 2.96438 9.01777 2.73223C8.78562 2.50009 8.51002 2.31594 8.20671 2.1903C7.90339 2.06466 7.5783 2 7.25 2C6.9217 2 6.59661 2.06466 6.29329 2.1903C5.98998 2.31594 5.71438 2.50009 5.48223 2.73223C5.25009 2.96438 5.06594 3.23998 4.9403 3.54329C4.81466 3.84661 4.75 4.1717 4.75 4.5Z" stroke="#999999" stroke-width="2" stroke-linecap="round" stroke-linejoin="round"/>
<path d="M2.25 14.5C2.25 11.7386 4.48858 9.5 7.25 9.5" stroke="#999999" stroke-width="2" stroke-linecap="round" stroke-linejoin="round"/>
<path d="M22.25 14.5C22.25 11.7386 20.0115 9.5 17.25 9.5" stroke="#999999" stroke-width="2" stroke-linecap="round" stroke-linejoin="round"/>
<path d="M14.75 4.5C14.75 4.8283 14.8147 5.15339 14.9403 5.45671C15.0659 5.76002 15.2501 6.03562 15.4822 6.26777C15.7144 6.49991 15.99 6.68406 16.2933 6.8097C16.5966 6.93534 16.9217 7 17.25 7C17.5783 7 17.9034 6.93534 18.2067 6.8097C18.51 6.68406 18.7856 6.49991 19.0178 6.26777C19.2499 6.03562 19.4341 5.76002 19.5597 5.45671C19.6853 5.15339 19.75 4.8283 19.75 4.5C19.75 3.83696 19.4866 3.20107 19.0178 2.73223C18.5489 2.26339 17.913 2 17.25 2C16.587 2 15.9511 2.26339 15.4822 2.73223C15.0134 3.20107 14.75 3.83696 14.75 4.5Z" stroke="#999999" stroke-width="2" stroke-linecap="round" stroke-linejoin="round"/>
<path d="M17.25 22C17.25 19.2385 15.0114 17 12.25 17C9.48858 17 7.25 19.2385 7.25 22" stroke="#999999" stroke-width="2" stroke-linecap="round" stroke-linejoin="round"/>
<path d="M9.75 12C9.75 12.663 10.0134 13.2989 10.4822 13.7678C10.9511 14.2366 11.587 14.5 12.25 14.5C12.913 14.5 13.5489 14.2366 14.0178 13.7678C14.4866 13.2989 14.75 12.663 14.75 12C14.75 11.337 14.4866 10.7011 14.0178 10.2322C13.5489 9.76339 12.913 9.5 12.25 9.5C11.587 9.5 10.9511 9.76339 10.4822 10.2322C10.0134 10.7011 9.75 11.337 9.75 12Z" stroke="#999999" stroke-width="2" stroke-linecap="round" stroke-linejoin="round"/>
</svg>
