<svg width="24" height="24" viewBox="0 0 24 24" fill="none" xmlns="http://www.w3.org/2000/svg">
<path d="M20.6546 18.8958C21.1084 19.3496 20.9008 20.1245 20.2809 20.2906C19.9932 20.3677 19.6862 20.2854 19.4756 20.0748L12.566 13.1642L5.65639 20.0748C5.20259 20.5286 4.42769 20.321 4.26158 19.7011C4.1845 19.4134 4.26675 19.1064 4.47736 18.8958L11.388 11.9862L4.47736 5.07656C4.02356 4.62275 4.23119 3.84785 4.8511 3.68175C5.1388 3.60467 5.44578 3.68692 5.65639 3.89753L12.566 10.8082L19.4756 3.89753C19.9294 3.44372 20.7043 3.65135 20.8704 4.27126C20.9475 4.55897 20.8652 4.86595 20.6546 5.07656L13.744 11.9862L20.6546 18.8958Z" fill="black" stroke="black" stroke-width="0.2"/>
</svg>
