<svg width="144" height="49" viewBox="0 0 144 49" fill="none" xmlns="http://www.w3.org/2000/svg">
<path d="M122 0H143.156V9.80605H134.688V19.0976H142.614V28.4194H134.688V39.1939H144V49H122V0Z" fill="#004D40"/>
<path d="M121.305 0L114.023 22.1241L122 49H108.857L103.72 27.9957V49H91V0H103.72V19.0371L109.37 0H121.305Z" fill="#004D40"/>
<path d="M80.4251 0V39.1939H93V49H68V0H80.4251Z" fill="#004D40"/>
<path d="M16.8024 17.8182V0C2.83019 0 3.00023 7.84848 3.00009 14.1061C2.99868 23.9697 6.03205 27.7879 11.1549 29.4848L26.4256 30.7576L26.4256 49C42.9495 47.6212 39.6029 41.2576 39.915 29.4848C40.1583 20.3053 32.908 17.8889 29.0385 17.8182H16.8024Z" fill="#004D40"/>
<rect x="16" width="53" height="11" fill="#004D40"/>
<rect x="43" y="10" width="14" height="39" fill="#004D40"/>
<rect y="39" width="25" height="2" fill="#FFBF00"/>
<rect y="43" width="25" height="2" fill="#FFBF00"/>
<rect y="47" width="25" height="2" fill="#FFBF00"/>
</svg>
