<svg width="12" height="12" viewBox="0 0 12 12" fill="none" xmlns="http://www.w3.org/2000/svg">
<path d="M9.32412 8.30762H9.37599C9.66313 8.30762 9.92654 8.467 10.0593 8.72123L10.9558 10.4375C11.0896 10.6935 10.9035 10.9999 10.6142 10.9999H1.38584C1.09777 10.9999 0.911568 10.6959 1.04286 10.44L1.92202 8.72623C2.05385 8.46931 2.31873 8.30762 2.60797 8.30762H2.65803" stroke="#4C935C" stroke-linecap="round" stroke-linejoin="round"/>
<path d="M6.04763 1H5.95701C4.07197 1 2.50742 2.45411 2.37312 4.33091C2.30768 5.24532 2.51442 6.17315 3.07087 6.90248C3.76638 7.81409 4.47257 8.445 5.58868 9.19138C5.83866 9.35854 6.16598 9.35854 6.41596 9.19138C7.53208 8.445 8.23825 7.81409 8.9338 6.90248C9.49021 6.17315 9.69697 5.24532 9.63155 4.33091C9.49722 2.45411 7.93267 1 6.04763 1Z" stroke="#4C935C" stroke-linecap="round" stroke-linejoin="round"/>
<path d="M6.00265 5.61531C6.74247 5.61531 7.15862 5.19992 7.15862 4.46146C7.15862 3.723 6.74247 3.30762 6.00265 3.30762C5.26283 3.30762 4.84668 3.723 4.84668 4.46146C4.84668 5.19992 5.26283 5.61531 6.00265 5.61531Z" stroke="#4C935C" stroke-linecap="round" stroke-linejoin="round"/>
</svg>
