<svg width="12" height="12" viewBox="0 0 12 12" fill="none" xmlns="http://www.w3.org/2000/svg">
<g clip-path="url(#clip0_1571_2759)">
<path d="M2 3.25C2 3.84674 2.23705 4.41903 2.65901 4.84099C3.08097 5.26295 3.65326 5.5 4.25 5.5C4.84674 5.5 5.41903 5.26295 5.84099 4.84099C6.26295 4.41903 6.5 3.84674 6.5 3.25C6.5 2.65326 6.26295 2.08097 5.84099 1.65901C5.41903 1.23705 4.84674 1 4.25 1C3.65326 1 3.08097 1.23705 2.65901 1.65901C2.23705 2.08097 2 2.65326 2 3.25Z" stroke="#4C935C" stroke-linecap="round" stroke-linejoin="round"/>
<path d="M1 11V9.83333C1 9.21449 1.22827 8.621 1.6346 8.18342C2.04093 7.74583 2.59203 7.5 3.16667 7.5H5.33333C5.90797 7.5 6.45907 7.74583 6.8654 8.18342C7.27173 8.621 7.5 9.21449 7.5 9.83333V11" stroke="#4C935C" stroke-linecap="round" stroke-linejoin="round"/>
<path d="M8 1C8.57211 1.12792 9.0792 1.41847 9.44132 1.82586C9.80345 2.23324 10 2.73429 10 3.25C10 3.76571 9.80345 4.26676 9.44132 4.67414C9.0792 5.08153 8.57211 5.37208 8 5.5" stroke="#4C935C" stroke-linecap="round" stroke-linejoin="round"/>
<path d="M11 11V9.80342C10.9975 9.27522 10.849 8.76287 10.5776 8.34622C10.3063 7.92958 9.92741 7.63204 9.5 7.5" stroke="#4C935C" stroke-linecap="round" stroke-linejoin="round"/>
</g>
<defs>
<clipPath id="clip0_1571_2759">
<rect width="12" height="12" fill="white"/>
</clipPath>
</defs>
</svg>
